<svg xmlns="http://www.w3.org/2000/svg" viewBox="0 0 370.12 96.58"><defs><style>.cls-1{fill:#fff;}</style></defs><title>Asset 5</title><g id="Layer_2" data-name="Layer 2"><g id="Layer_1-2" data-name="Layer 1"><path class="cls-1" d="M140.68,50.83v44.1h18.08V50.83a7.94,7.94,0,0,1,8.16-8.16c2.76,0,7.06-.11,7.06-.11V24.7s-5.29-.11-7.06-.11C152.37,24.26,140.68,36.27,140.68,50.83Z"/><path class="cls-1" d="M274.2,51.6Z"/><path class="cls-1" d="M322.38,45.64a31.71,31.71,0,0,0-6.5-11.25,30.17,30.17,0,0,0-10.69-7.5,37.26,37.26,0,0,0-14.55-2.65A34.22,34.22,0,0,0,265.27,35,34.47,34.47,0,0,0,258,46.42a37.06,37.06,0,0,0-2.65,13.89A38.27,38.27,0,0,0,258,74.75a35,35,0,0,0,7.5,11.47A33.92,33.92,0,0,0,277,93.72a38.1,38.1,0,0,0,14.33,2.65c7.61,0,14.11-1.65,19.4-5.07a41.4,41.4,0,0,0,9.92-9.15l-13.34-10a21.36,21.36,0,0,1-5.4,5.51,17.84,17.84,0,0,1-10.25,2.87h-.77A21.82,21.82,0,0,1,287,80h0c-.33-.11-.66-.11-1-.22-.11,0-.33-.11-.44-.11a17,17,0,0,1-5.62-2.87,18.88,18.88,0,0,1-4.3-5,21.92,21.92,0,0,1-2.32-7.17h51a6.78,6.78,0,0,1,.11-1.54,7.81,7.81,0,0,1,.11-1.54V60A45.44,45.44,0,0,0,322.38,45.64Zm-48.18,6h0a17.66,17.66,0,0,1,7.94-10.36c.33-.22.66-.33,1-.55h0A17.47,17.47,0,0,1,290.74,39a19.88,19.88,0,0,1,7.17,1.21,16,16,0,0,1,5,3.2A15.81,15.81,0,0,1,306,47.63a16.81,16.81,0,0,1,1,2.76,5.53,5.53,0,0,1,.22,1.32h-33Z"/><path class="cls-1" d="M26,0A26.07,26.07,0,0,0,0,26V94.93H19.51V57.55H43.33V39.69H19.51V26.24a8.38,8.38,0,0,1,8.38-8.38H49.94V0Z"/><path class="cls-1" d="M217.53,38.81c-5.4-1.54-13.56-4.52-13.34-11.36.44-6.95,5.84-9.48,11.25-9.37,4.3,0,8.71,1.87,12.46,7.94l15-9.7C235.83,5.73,226.24.55,215.54.55c-14.22,0-29.44,8.6-29.77,27.12S203.53,52.81,213,55.13c6.5,1.65,14.88,5.18,14.33,14-.22,6.06-5.29,9.92-12.57,9.81-5.29,0-12.24-2.21-16.65-11.69l-15,9.7c9,16.87,22.16,19.63,32.41,19.63,14.77,0,29.22-8.49,30-26.57C246.42,49.28,231.75,42.45,217.53,38.81Z"/><path class="cls-1" d="M357.66,69.68V39.91h10V25.14h-10v-18H339.58v18H333V40h6.62v30.1c-.66,18.41,13.78,25,30.54,22.16V76.52C362.18,77.62,357.66,74.2,357.66,69.68Z"/><path class="cls-1" d="M92.28,79.6a19.18,19.18,0,0,1,0-38.37,18.89,18.89,0,0,1,9.59,2.54l8.38-14.55a35.35,35.35,0,0,0-18-4.85,35.94,35.94,0,1,0,25.47,61.3L106,74A19.52,19.52,0,0,1,92.28,79.6Z"/><path class="cls-1" d="M111.58,60.31A19.72,19.72,0,0,1,109,69.9l14.44,8.49a35.65,35.65,0,0,0,4.85-18A36,36,0,0,0,117.75,35L106,46.75A19.46,19.46,0,0,1,111.58,60.31Z"/></g></g></svg>